<svg xmlns="http://www.w3.org/2000/svg" viewBox="0 0 256 256"><g id="Ebene_2" data-name="Ebene 2"><g id="Ebene_1-2" data-name="Ebene 1"><rect width="256" height="256" style="fill:#008cdb"/><path d="M140.29,211.82c-36.11-11-62.35-44.38-62.35-83.82,0-39.87,26.81-73.52,63.52-84.17,3.76-1.09,2.77-3.52-1.75-3.52C90.9,40.31,51.33,79.57,51.33,128s39.57,87.69,88.38,87.69C144.23,215.69,144.42,213.08,140.29,211.82Z" style="fill:#fff"/><path d="M94.68,148.53c-2.61-25,9.63-75.07,69.26-76.76,36.34-1,47.28,16.25,48.62,15.19,1.49-1.17-13.19-33.35-55.88-33.35a69.64,69.64,0,0,0-64.92,94.81c1.28,3.28,3.25,3.29,2.92.11Z" style="fill:#fff"/><path d="M123.85,98.36c18.09-7.89,40.83-8.11,63.17-.31,15,5.24,23.71,12.71,24.42,12.41,1.18-.51-8.73-16.21-26.62-23a63.72,63.72,0,0,0-62,9.41C120.92,98.34,121.63,99.33,123.85,98.36Z" style="fill:#fff"/><path d="M129.18,44.75l14.53-3s1.89,3.07-4.4,14.06l47.25,10.75,26,20.41s1.67,3.1-14.3,8l1.66,5.53,11.52,9.93h0a19.48,19.48,0,0,1-12.74,3.32c-20.64-1.85-81.79-4-87.8,34.68-6,38.32,18.29,55.38,27.1,60.23a13.53,13.53,0,0,1,5.1,4.89h-8.51L89.87,190.43,62.32,132.81l12.12-44Z" style="fill:#fff;opacity:0.4;isolation:isolate"/></g></g></svg>